<?xml version="1.0" encoding="utf-8"?>
<!-- Generator: Adobe Illustrator 13.0.0, SVG Export Plug-In . SVG Version: 6.00 Build 14948)  -->
<!DOCTYPE svg PUBLIC "-//W3C//DTD SVG 1.1//EN" "http://www.w3.org/Graphics/SVG/1.1/DTD/svg11.dtd">
<svg version="1.1" xmlns="http://www.w3.org/2000/svg" xmlns:xlink="http://www.w3.org/1999/xlink" x="0px" y="0px" width="20px"
	 height="36px" viewBox="0 0 20 36" enable-background="new 0 0 20 36" xml:space="preserve">
<g id="Calque_1">
</g>
<g id="Mode_Isolation">
	<path fill="#92BC10" d="M12,4H4v4h8V4z M11,7H5V5h6V7z M0,8v4h4V8H0z M3,11H1V9h2V11z M8,12H4v4h4V12z M7,15H5v-2h2V15z M0,16v8h4
		v-8H0z M3,23H1v-6h2V23z M8,16v4h4v4h4v-4h4v-4H8z M19,19h-4v4h-2v-4H9v-2h10V19z M4,28h8v-4H4V28z M5,25h6v2H5V25z"/>
</g>
</svg>
