<?xml version="1.0" encoding="utf-8"?>
<!-- Generator: Adobe Illustrator 13.0.0, SVG Export Plug-In . SVG Version: 6.00 Build 14948)  -->
<!DOCTYPE svg PUBLIC "-//W3C//DTD SVG 1.1//EN" "http://www.w3.org/Graphics/SVG/1.1/DTD/svg11.dtd">
<svg version="1.1" id="Mode_Isolation" xmlns="http://www.w3.org/2000/svg" xmlns:xlink="http://www.w3.org/1999/xlink" x="0px"
	 y="0px" width="20px" height="36px" viewBox="0 0 20 36" enable-background="new 0 0 20 36" xml:space="preserve">
<g id="Calque_3">
	<rect fill="none" width="20" height="36"/>
	<path fill="#1E296D" d="M4,16V8H0v16h4v-4h4v-4H4z M7,19H3v4H1V9h2v8h4V19z"/>
	<path fill="#1E296D" d="M12,8v4H8v4h4v8h4V8H12z M15,23h-2v-8H9v-2h4V9h2V23z"/>
	<path fill="#1E296D" d="M4,4v4h8V4H4z M11,7H5V5h6V7z"/>
	<path fill="#1E296D" d="M4,24v4h8v-4H4z M11,27H5v-2h6V27z"/>
</g>
</svg>
