<?xml version="1.0" encoding="utf-8"?>
<!-- Generator: Adobe Illustrator 13.0.0, SVG Export Plug-In . SVG Version: 6.00 Build 14948)  -->
<!DOCTYPE svg PUBLIC "-//W3C//DTD SVG 1.1//EN" "http://www.w3.org/Graphics/SVG/1.1/DTD/svg11.dtd">
<svg version="1.1" id="Mode_Isolation" xmlns="http://www.w3.org/2000/svg" xmlns:xlink="http://www.w3.org/1999/xlink" x="0px"
	 y="0px" width="20px" height="36px" viewBox="0 0 20 36" enable-background="new 0 0 20 36" xml:space="preserve">
<g id="Calque_3">
	<rect fill="none" width="20" height="36"/>
	<path fill="#1E296D" d="M8,16v8h4v-8H8z M11,23H9v-6h2V23z"/>
	<path fill="#1E296D" d="M4,24v4h4v-4H4z M7,27H5v-2h2V27z"/>
	<path fill="#1E296D" d="M12,8V4H0v12h8v-4H4V8H12z M7,13v2H1V5h10v2H3v6H7z"/>
	<path fill="#1E296D" d="M0,20v4h4v-4H0z M3,23H1v-2h2V23z"/>
</g>
</svg>
