<?xml version="1.0" encoding="utf-8"?>
<!-- Generator: Adobe Illustrator 13.0.0, SVG Export Plug-In . SVG Version: 6.00 Build 14948)  -->
<!DOCTYPE svg PUBLIC "-//W3C//DTD SVG 1.1//EN" "http://www.w3.org/Graphics/SVG/1.1/DTD/svg11.dtd">
<svg version="1.1" id="Mode_Isolation" xmlns="http://www.w3.org/2000/svg" xmlns:xlink="http://www.w3.org/1999/xlink" x="0px"
	 y="0px" width="20px" height="36px" viewBox="0 0 20 36" enable-background="new 0 0 20 36" xml:space="preserve">
<g id="Calque_3">
	<rect fill="none" width="20" height="36"/>
	<path fill="#1E296D" d="M8,8v8H4v4h4v4h4V8H8z M11,23H9v-4H5v-2h4V9h2V23z"/>
	<path fill="#1E296D" d="M4,4v4h4V4H4z M7,7H5V5h2V7z"/>
	<path fill="#1E296D" d="M0,24v4h8v-4H0z M7,27H1v-2h6V27z"/>
	<path fill="#1E296D" d="M0,8v8h4V8H0z M3,15H1V9h2V15z"/>
</g>
</svg>
