<?xml version="1.0" encoding="utf-8"?>
<!-- Generator: Adobe Illustrator 13.0.0, SVG Export Plug-In . SVG Version: 6.00 Build 14948)  -->
<!DOCTYPE svg PUBLIC "-//W3C//DTD SVG 1.1//EN" "http://www.w3.org/Graphics/SVG/1.1/DTD/svg11.dtd">
<svg version="1.1" xmlns="http://www.w3.org/2000/svg" xmlns:xlink="http://www.w3.org/1999/xlink" x="0px" y="0px" width="20px"
	 height="36px" viewBox="-440.5 355.5 20 36" enable-background="new -440.5 355.5 20 36" xml:space="preserve">
<g id="Calque_2">
</g>
<g id="Calque_1">
	<g>
		<path d="M-436.5,363.5v4h4v-4H-436.5z M-433.5,366.5h-2v-2h2V366.5z"/>
		<path d="M-432.5,371.415v4h4v-4H-432.5z M-429.5,374.415h-2v-2h2V374.415z"/>
		<path d="M-432.5,379.5v4h4v-4H-432.5z M-429.5,382.5h-2v-2h2V382.5z"/>
		<path d="M-432.5,359.5v4h4v-4H-432.5z M-429.5,362.5h-2v-2h2V362.5z"/>
		<path d="M-428.5,363.5v8h4v-8H-428.5z M-425.5,370.5h-2v-6h2V370.5z"/>
	</g>
</g>
</svg>
