<?xml version="1.0" encoding="utf-8"?>
<!-- Generator: Adobe Illustrator 13.0.0, SVG Export Plug-In . SVG Version: 6.00 Build 14948)  -->
<!DOCTYPE svg PUBLIC "-//W3C//DTD SVG 1.1//EN" "http://www.w3.org/Graphics/SVG/1.1/DTD/svg11.dtd">
<svg version="1.1" id="Mode_Isolation" xmlns="http://www.w3.org/2000/svg" xmlns:xlink="http://www.w3.org/1999/xlink" x="0px"
	 y="0px" width="20px" height="36px" viewBox="0 0 20 36" enable-background="new 0 0 20 36" xml:space="preserve">
<g id="Calque_3">
	<rect fill="none" width="20" height="36"/>
	<g id="Calque_3_1_">
		<path fill="#A2C200" d="M8,12V8h8V4H0v4h4v16H0v4h16v-4H8v-8h8v-4H8z M15,15H7v10h8v2H1v-2h4V7H1V5h14v2H7v6h8V15z M20,12V8h-4v4
			H20z M17,9h2v2h-2V9z M20,24v-8h-4v8H20z M17,17h2v6h-2V17z"/>
	</g>
</g>
</svg>
