<?xml version="1.0" encoding="utf-8"?>
<!DOCTYPE svg PUBLIC "-//W3C//DTD SVG 1.1//EN" "http://www.w3.org/Graphics/SVG/1.1/DTD/svg11.dtd">
<svg version="1.1" id="Mode_Isolation" xmlns="http://www.w3.org/2000/svg" xmlns:xlink="http://www.w3.org/1999/xlink" x="0px"
	 y="0px" width="28px" height="36px" viewBox="0 0 28 36" enable-background="new 0 0 28 36" xml:space="preserve">
<g>
	<rect fill="none" width="20" height="36"/>
	<path d="M0,12v12h4V12H0z M3,23H1V13h2V23z M8,8H4v4h4V8z M7,11H5V9h2V11z M8,12v4h4v-4H8z M11,15H9v-2h2V15z M12,20h4v-4h-4V20z
		 M13,17h2v2h-2V17z M16,16h4v-4h-4V16z M17,13h2v2h-2V13z M24,12V8h-4v4H24z M21,9h2v2h-2V9z M20,4H8v4h12V4z M19,7H9V5h10V7z
		 M24,12v12h4V12H24z M27,23h-2V13h2V23z M20,28h4v-4h-4V28z M21,25h2v2h-2V25z M20,24v-4h-4v4H20z M17,21h2v2h-2V21z M8,24h4v-4H8
		V24z M9,21h2v2H9V21z M4,24v4h4v-4H4z M7,27H5v-2h2V27z M8,32h12v-4H8V32z M9,29h10v2H9V29z"/>
</g>
</svg>
