<?xml version="1.0" encoding="utf-8"?>
<!-- Generator: Adobe Illustrator 13.0.0, SVG Export Plug-In . SVG Version: 6.00 Build 14948)  -->
<!DOCTYPE svg PUBLIC "-//W3C//DTD SVG 1.1//EN" "http://www.w3.org/Graphics/SVG/1.1/DTD/svg11.dtd">
<svg version="1.1" id="Calque_2" xmlns="http://www.w3.org/2000/svg" xmlns:xlink="http://www.w3.org/1999/xlink" x="0px" y="0px"
	 width="20px" height="36px" viewBox="0 0 20 36" enable-background="new 0 0 20 36" xml:space="preserve">
<g id="h">
	<rect fill="none" width="20" height="36"/>
	<path fill="#1A171B" d="M8,4H0v4h4v16H0v4h12v-4H8v-4h4v-4H8V4z M11,17v2H7v6h4v2H1v-2h4V7H1V5h6v12H11z M12,12v4h4v-4H12z M15,15
		h-2v-2h2V15z M16,16v12h4V16H16z M19,27h-2V17h2V27z"/>
</g>
</svg>
