<?xml version="1.0" encoding="utf-8"?>
<!-- Generator: Adobe Illustrator 13.0.0, SVG Export Plug-In . SVG Version: 6.00 Build 14948)  -->
<!DOCTYPE svg PUBLIC "-//W3C//DTD SVG 1.1//EN" "http://www.w3.org/Graphics/SVG/1.1/DTD/svg11.dtd">
<svg version="1.1" id="Mode_Isolation" xmlns="http://www.w3.org/2000/svg" xmlns:xlink="http://www.w3.org/1999/xlink" x="0px"
	 y="0px" width="20px" height="36px" viewBox="0 0 20 36" enable-background="new 0 0 20 36" xml:space="preserve">
<g id="Calque_3">
	<rect fill="none" width="20" height="36"/>
	<path fill="#A2C200" d="M16,8h4V4h-8v8h4V8z M15,11h-2V5h6v2h-4V11z M8,12V4H0v4h4v16H0v4h8v-8h4v8h8v-4h-4v-8h-4v-4H8z M15,17v8h4
		v2h-6v-8H7v8H1v-2h4V7H1V5h6v8h4v4H15z"/>
</g>
</svg>
