<?xml version="1.0" encoding="utf-8"?>
<!-- Generator: Adobe Illustrator 13.0.0, SVG Export Plug-In . SVG Version: 6.00 Build 14948)  -->
<!DOCTYPE svg PUBLIC "-//W3C//DTD SVG 1.1//EN" "http://www.w3.org/Graphics/SVG/1.1/DTD/svg11.dtd">
<svg version="1.1" id="Mode_Isolation" xmlns="http://www.w3.org/2000/svg" xmlns:xlink="http://www.w3.org/1999/xlink" x="0px"
	 y="0px" width="20px" height="36px" viewBox="0 0 20 36" enable-background="new 0 0 20 36" xml:space="preserve">
<g id="Calque_3">
	<rect fill="none" width="20" height="36"/>
	<path fill="#A2C200" d="M8,16h4V8H8V4H0v4h4v16H0v4h12v-4H8V16z M11,25v2H1v-2h4V7H1V5h6v4h4v6H7v10H11z M12,4v4h4v8h-4v8h4v4h4V4
		H12z M19,27h-2v-4h-4v-6h4V7h-4V5h6V27z"/>
</g>
</svg>
