<?xml version="1.0" encoding="utf-8"?>
<!-- Generator: Adobe Illustrator 13.0.0, SVG Export Plug-In . SVG Version: 6.00 Build 14948)  -->
<!DOCTYPE svg PUBLIC "-//W3C//DTD SVG 1.1//EN" "http://www.w3.org/Graphics/SVG/1.1/DTD/svg11.dtd">
<svg version="1.1" xmlns="http://www.w3.org/2000/svg" xmlns:xlink="http://www.w3.org/1999/xlink" x="0px" y="0px" width="20px"
	 height="36px" viewBox="0 0 20 36" enable-background="new 0 0 20 36" xml:space="preserve">
<g id="Mode_Isolation">
	<g id="Calque_3">
		<rect fill="none" width="20" height="36"/>
		<path fill="#A2C200" d="M8,16V8h8V4H0v4h4v16H0v4h12v-4H8v-4h8v-4H8z M15,19H7v6h4v2H1v-2h4V7H1V5h14v2H7v10h8V19z M20,28v-8h-4v8
			H20z M17,21h2v6h-2V21z M20,16V8h-4v8H20z M17,9h2v6h-2V9z"/>
	</g>
</g>
<g id="Calque_3_1_">
</g>
</svg>
