<?xml version="1.0" encoding="utf-8"?>
<!-- Generator: Adobe Illustrator 13.0.0, SVG Export Plug-In . SVG Version: 6.00 Build 14948)  -->
<!DOCTYPE svg PUBLIC "-//W3C//DTD SVG 1.1//EN" "http://www.w3.org/Graphics/SVG/1.1/DTD/svg11.dtd">
<svg version="1.1" id="Mode_Isolation" xmlns="http://www.w3.org/2000/svg" xmlns:xlink="http://www.w3.org/1999/xlink" x="0px"
	 y="0px" width="28px" height="36px" viewBox="0 0 28 36" enable-background="new 0 0 28 36" xml:space="preserve">
<g>
	<rect fill="none" width="20" height="36"/>
	<path fill="#1A171B" d="M0,4v28h28V4H0z M27,31H1V5h26V31z M7,29h14v-4h4V11h-4V7H7v4H3v14h4V29z M4,24V12h4V8h12v4h4v12h-4v4H8v-4
		H4z M16,16h4v-4h-4V16z M17,13h2v2h-2V13z M16,16h-4v4h4V16z M15,19h-2v-2h2V19z M12,16v-4H8v4H12z M9,13h2v2H9V13z M12,20H8v4h4
		V20z M11,23H9v-2h2V23z M16,20v4h4v-4H16z M19,23h-2v-2h2V23z"/>
</g>
</svg>
