<?xml version="1.0" encoding="utf-8"?>
<!-- Generator: Adobe Illustrator 13.0.0, SVG Export Plug-In . SVG Version: 6.00 Build 14948)  -->
<!DOCTYPE svg PUBLIC "-//W3C//DTD SVG 1.1//EN" "http://www.w3.org/Graphics/SVG/1.1/DTD/svg11.dtd">
<svg version="1.1" id="Mode_Isolation" xmlns="http://www.w3.org/2000/svg" xmlns:xlink="http://www.w3.org/1999/xlink" x="0px"
	 y="0px" width="20px" height="36px" viewBox="0 0 20 36" enable-background="new 0 0 20 36" xml:space="preserve">
<g id="Calque_3">
	<rect fill="none" width="20" height="36"/>
	<path fill="#A2C200" d="M8,8V4H0v8h4V8H8z M3,7v4H1V5h6v2H3z M4,12v12h4V12H4z M7,23H5V13h2V23z M12,24h4V12h-4V24z M13,13h2v10h-2
		V13z M8,28h4v-4H8V28z M9,25h2v2H9V25z M12,4v4h4v4h4V4H12z M19,11h-2V7h-4V5h6V11z"/>
</g>
</svg>
