<?xml version="1.0" encoding="utf-8"?>
<!-- Generator: Adobe Illustrator 13.0.0, SVG Export Plug-In . SVG Version: 6.00 Build 14948)  -->
<!DOCTYPE svg PUBLIC "-//W3C//DTD SVG 1.1//EN" "http://www.w3.org/Graphics/SVG/1.1/DTD/svg11.dtd">
<svg version="1.1" id="Mode_Isolation" xmlns="http://www.w3.org/2000/svg" xmlns:xlink="http://www.w3.org/1999/xlink" x="0px"
	 y="0px" width="20px" height="36px" viewBox="0 0 20 36" enable-background="new 0 0 20 36" xml:space="preserve">
<g id="Calque_3">
	<rect fill="none" width="20" height="36"/>
	<path fill="#A2C200" d="M8,8V4H0v20h4V8H8z M3,7v16H1V5h6v2H3z M4,28h4v-4H4V28z M5,25h2v2H5V25z M8,12v12h4V12H8z M11,23H9V13h2
		V23z M12,28h4v-4h-4V28z M13,25h2v2h-2V25z M12,4v4h4v16h4V4H12z M19,23h-2V7h-4V5h6V23z"/>
</g>
</svg>
