<?xml version="1.0" encoding="utf-8"?>
<!-- Generator: Adobe Illustrator 13.0.0, SVG Export Plug-In . SVG Version: 6.00 Build 14948)  -->
<!DOCTYPE svg PUBLIC "-//W3C//DTD SVG 1.1//EN" "http://www.w3.org/Graphics/SVG/1.1/DTD/svg11.dtd">
<svg version="1.1" id="Mode_Isolation" xmlns="http://www.w3.org/2000/svg" xmlns:xlink="http://www.w3.org/1999/xlink" x="0px"
	 y="0px" width="20px" height="36px" viewBox="0 0 20 36" enable-background="new 0 0 20 36" xml:space="preserve">
<g>
	<rect fill="none" width="20" height="36"/>
	<path fill="#1A171B" d="M8,16v-4H0v12h4v-8H8z M3,15v8H1V13h6v2H3z M4,28h4v-4H4V28z M5,25h2v2H5V25z M8,20v4h4v-4H8z M11,23H9v-2
		h2V23z M12,28h4v-4h-4V28z M13,25h2v2h-2V25z M12,12v4h4v8h4V12H12z M19,23h-2v-8h-4v-2h6V23z"/>
</g>
</svg>
