<?xml version="1.0" encoding="utf-8"?>
<!-- Generator: Adobe Illustrator 13.0.0, SVG Export Plug-In . SVG Version: 6.00 Build 14948)  -->
<!DOCTYPE svg PUBLIC "-//W3C//DTD SVG 1.1//EN" "http://www.w3.org/Graphics/SVG/1.1/DTD/svg11.dtd">
<svg version="1.1" id="Mode_Isolation" xmlns="http://www.w3.org/2000/svg" xmlns:xlink="http://www.w3.org/1999/xlink" x="0px"
	 y="0px" width="20px" height="36px" viewBox="0 0 20 36" enable-background="new 0 0 20 36" xml:space="preserve">
<g id="Calque_3">
	<rect fill="none" width="20" height="36"/>
	<path fill="#A2C200" d="M4,24H0v4h8v-8H4V24z M5,21h2v6H1v-2h4V21z M20,28v-4h-4v-4h-4v8H20z M13,21h2v4h4v2h-6V21z M8,12v8h4v-8H8
		z M11,19H9v-6h2V19z M16,8h4V4h-8v8h4V8z M15,11h-2V5h6v2h-4V11z M0,4v4h4v4h4V4H0z M7,11H5V7H1V5h6V11z"/>
</g>
</svg>
