<?xml version="1.0" encoding="utf-8"?>
<!-- Generator: Adobe Illustrator 13.0.0, SVG Export Plug-In . SVG Version: 6.00 Build 14948)  -->
<!DOCTYPE svg PUBLIC "-//W3C//DTD SVG 1.1//EN" "http://www.w3.org/Graphics/SVG/1.1/DTD/svg11.dtd">
<svg version="1.1" id="Mode_Isolation" xmlns="http://www.w3.org/2000/svg" xmlns:xlink="http://www.w3.org/1999/xlink" x="0px"
	 y="0px" width="20px" height="36px" viewBox="0 0 20 36" enable-background="new 0 0 20 36" xml:space="preserve">
<g>
	<rect fill="none" width="20" height="36"/>
	<path fill="#1A171B" d="M0,28h4v-4H0V28z M1,25h2v2H1V25z M0,12v4h4v-4H0z M3,15H1v-2h2V15z M4,16v8h8v-8H4z M11,23H5v-6h6V23z
		 M16,12h-4v4h4V12z M15,15h-2v-2h2V15z M16,28v-4h-4v4H16z M13,25h2v2h-2V25z"/>
</g>
</svg>
