<?xml version="1.0" encoding="utf-8"?>
<!-- Generator: Adobe Illustrator 13.0.0, SVG Export Plug-In . SVG Version: 6.00 Build 14948)  -->
<!DOCTYPE svg PUBLIC "-//W3C//DTD SVG 1.1//EN" "http://www.w3.org/Graphics/SVG/1.1/DTD/svg11.dtd">
<svg version="1.1" id="Mode_Isolation" xmlns="http://www.w3.org/2000/svg" xmlns:xlink="http://www.w3.org/1999/xlink" x="0px"
	 y="0px" width="20px" height="36px" viewBox="0 0 20 36" enable-background="new 0 0 20 36" xml:space="preserve">
<g id="Calque_3">
	<rect fill="none" width="20" height="36"/>
	<path fill="#A2C200" d="M8,8V4H0v8h4V8H8z M3,7v4H1V5h6v2H3z M12,4v4h4v4h4V4H12z M19,11h-2V7h-4V5h6V11z M12,16h4v-4h-4V16z
		 M13,13h2v2h-2V13z M4,12v4h4v-4H4z M7,15H5v-2h2V15z M8,24H4v4h12v-4h-4v-8H8V24z M9,17h2v8h4v2H5v-2h4V17z"/>
</g>
</svg>
