<?xml version="1.0" encoding="utf-8"?>
<!-- Generator: Adobe Illustrator 13.0.0, SVG Export Plug-In . SVG Version: 6.00 Build 14948)  -->
<!DOCTYPE svg PUBLIC "-//W3C//DTD SVG 1.1//EN" "http://www.w3.org/Graphics/SVG/1.1/DTD/svg11.dtd">
<svg version="1.1" id="Mode_Isolation" xmlns="http://www.w3.org/2000/svg" xmlns:xlink="http://www.w3.org/1999/xlink" x="0px"
	 y="0px" width="20px" height="36px" viewBox="0 0 20 36" enable-background="new 0 0 20 36" xml:space="preserve">
<g id="Calque_3">
	<rect fill="none" width="20" height="36"/>
	<path fill="#A2C200" d="M16,4H0v8h4V8h8v4h4V4z M15,11h-2V7H3v4H1V5h14V11z M12,12H8v4h4V12z M11,15H9v-2h2V15z M8,16H4v4h4V16z
		 M7,19H5v-2h2V19z M0,20v8h16v-8h-4v4H4v-4H0z M13,25v-4h2v6H1v-6h2v4H13z"/>
</g>
</svg>
