<?xml version="1.0" encoding="utf-8"?>
<!-- Generator: Adobe Illustrator 13.0.0, SVG Export Plug-In . SVG Version: 6.00 Build 14948)  -->
<!DOCTYPE svg PUBLIC "-//W3C//DTD SVG 1.1//EN" "http://www.w3.org/Graphics/SVG/1.1/DTD/svg11.dtd">
<svg version="1.1" id="Calque_3" xmlns="http://www.w3.org/2000/svg" xmlns:xlink="http://www.w3.org/1999/xlink" x="0px" y="0px"
	 width="20px" height="36px" viewBox="0 0 20 36" enable-background="new 0 0 20 36" xml:space="preserve">
<path fill="#A2C200" d="M16,0h-4v4h4V0z M15,3h-2V1h2V3z M8-4v4h4v-4H8z M11-1H9v-2h2V-1z M12,4H4v4h4v4h4V4z M11,11H9V7H5V5h6V11z
	 M12,12v4H8v-4H4v8h12v-8H12z M15,19H5v-6h2v4h6v-4h2V19z M0,28h8v-4H4v-4H0V28z M1,21h2v4h4v2H1V21z M16,20v4h-4v4h8v-8H16z M19,27
	h-6v-2h4v-4h2V27z"/>
<rect fill="none" width="20" height="36"/>
</svg>
