<?xml version="1.0" encoding="utf-8"?>
<!-- Generator: Adobe Illustrator 13.0.0, SVG Export Plug-In . SVG Version: 6.00 Build 14948)  -->
<!DOCTYPE svg PUBLIC "-//W3C//DTD SVG 1.1//EN" "http://www.w3.org/Graphics/SVG/1.1/DTD/svg11.dtd">
<svg version="1.1" id="Calque_3" xmlns="http://www.w3.org/2000/svg" xmlns:xlink="http://www.w3.org/1999/xlink" x="0px" y="0px"
	 width="20px" height="36px" viewBox="0 0 20 36" enable-background="new 0 0 20 36" xml:space="preserve">
<rect fill="none" width="20" height="36"/>
<path fill="#A2C200" d="M16-4h-4v4h4V-4z M15-1h-2v-2h2V-1z M20,12V4h-8V0H8v4H0v4h4v16H0v4h20v-8h-4v4H8v-8h4v-4H8V8h8v4H20z M9,1
	h2v2H9V1z M7,7v6h4v2H7v10h10v-4h2v6H1v-2h4V7H1V5h18v6h-2V7H7z"/>
</svg>
