<?xml version="1.0" encoding="utf-8"?>
<!-- Generator: Adobe Illustrator 13.0.0, SVG Export Plug-In . SVG Version: 6.00 Build 14948)  -->
<!DOCTYPE svg PUBLIC "-//W3C//DTD SVG 1.1//EN" "http://www.w3.org/Graphics/SVG/1.1/DTD/svg11.dtd">
<svg version="1.1" id="Calque_3" xmlns="http://www.w3.org/2000/svg" xmlns:xlink="http://www.w3.org/1999/xlink" x="0px" y="0px"
	 width="20px" height="36px" viewBox="0 0 20 36" enable-background="new 0 0 20 36" xml:space="preserve">
<rect fill="none" width="20" height="36"/>
<g id="Mode_Isolation_2_">
	<path fill="#A2C200" d="M8-4H4v4h4V-4z M7-1H5v-2h2V-1z M12,8V0H8v4H4V0H0v8h4v16H0v4h12v-4H8V8H12z M9,1h2v2H9V1z M1,1h2v2H1V1z
		 M11,25v2H1v-2h4V7H1V5h10v2H7v18H11z"/>
</g>
</svg>
