<?xml version="1.0" encoding="utf-8"?>
<!-- Generator: Adobe Illustrator 13.0.0, SVG Export Plug-In . SVG Version: 6.00 Build 14948)  -->
<!DOCTYPE svg PUBLIC "-//W3C//DTD SVG 1.1//EN" "http://www.w3.org/Graphics/SVG/1.1/DTD/svg11.dtd">
<svg version="1.1" id="Mode_Isolation" xmlns="http://www.w3.org/2000/svg" xmlns:xlink="http://www.w3.org/1999/xlink" x="0px"
	 y="0px" width="20px" height="36px" viewBox="0 0 20 36" enable-background="new 0 0 20 36" xml:space="preserve">
<rect fill="none" width="20" height="36"/>
<g>
	<path d="M0,8v16h4V8H0z M3,23H1V9h2V23z"/>
	<path d="M4,4v4h8V4H4z M11,7H5V5h6V7z"/>
	<path d="M12,8v16h4V8H12z M15,23h-2V9h2V23z"/>
	<path d="M4,24v4h8v-4H4z M11,27H5v-2h6V27z"/>
	<path d="M4-4v4h8v-4H4z M11-1H5v-2h6V-1z"/>
</g>
</svg>
