<?xml version="1.0" encoding="utf-8"?>
<!-- Generator: Adobe Illustrator 13.0.0, SVG Export Plug-In . SVG Version: 6.00 Build 14948)  -->
<!DOCTYPE svg PUBLIC "-//W3C//DTD SVG 1.1//EN" "http://www.w3.org/Graphics/SVG/1.1/DTD/svg11.dtd">
<svg version="1.1" id="Calque_3" xmlns="http://www.w3.org/2000/svg" xmlns:xlink="http://www.w3.org/1999/xlink" x="0px" y="0px"
	 width="20px" height="36px" viewBox="0 0 20 36" enable-background="new 0 0 20 36" xml:space="preserve">
<rect fill="none" width="20" height="36"/>
<g>
	<path d="M4,16H0v8h4V16z M1,23v-6h2v6H1z"/>
	<path d="M8,16v-4H4v4H8z M5,13h2v2H5V13z"/>
	<path d="M4,24v4h4v-4H4z M7,27H5v-2h2V27z"/>
	<path d="M12,12v4H8v8h4v-4h8v-8H12z M19,19h-8v4H9v-6h4v-4h6V19z"/>
	<path d="M12,28h8v-4h-8V28z M19,25v2h-6v-2H19z"/>
</g>
</svg>
