<?xml version="1.0" encoding="utf-8"?>
<!-- Generator: Adobe Illustrator 13.0.0, SVG Export Plug-In . SVG Version: 6.00 Build 14948)  -->
<!DOCTYPE svg PUBLIC "-//W3C//DTD SVG 1.1//EN" "http://www.w3.org/Graphics/SVG/1.1/DTD/svg11.dtd">
<svg version="1.1" id="Calque_3" xmlns="http://www.w3.org/2000/svg" xmlns:xlink="http://www.w3.org/1999/xlink" x="0px" y="0px"
	 width="20px" height="36px" viewBox="0 0 20 36" enable-background="new 0 0 20 36" xml:space="preserve">
<rect fill="none" width="20" height="36"/>
<g>
	<rect x="12" width="4" height="4"/>
	<rect x="8" y="-4" width="4" height="4"/>
	<polygon points="12,4 4,4 4,8 8,8 8,12 12,12 	"/>
	<polygon points="12,12 12,16 8,16 8,12 4,12 4,20 16,20 16,12 	"/>
	<polygon points="0,28 8,28 8,24 4,24 4,20 0,20 	"/>
	<polygon points="16,20 16,24 12,24 12,28 20,28 20,20 	"/>
</g>
</svg>
