<?xml version="1.0" encoding="utf-8"?>
<!-- Generator: Adobe Illustrator 13.0.0, SVG Export Plug-In . SVG Version: 6.00 Build 14948)  -->
<!DOCTYPE svg PUBLIC "-//W3C//DTD SVG 1.1//EN" "http://www.w3.org/Graphics/SVG/1.1/DTD/svg11.dtd">
<svg version="1.1" id="Calque_3" xmlns="http://www.w3.org/2000/svg" xmlns:xlink="http://www.w3.org/1999/xlink" x="0px" y="0px"
	 width="20px" height="36px" viewBox="0 0 20 36" enable-background="new 0 0 20 36" xml:space="preserve">
<rect fill="none" width="20" height="36"/>
<g id="Mode_Isolation">
	<polygon points="20,12 20,4 16,4 16,0 12,0 12,4 8,4 8,0 4,0 4,4 0,4 0,8 4,8 4,24 0,24 0,28 20,28 20,20 16,20 16,24 8,24 8,16 
		12,16 12,12 8,12 8,8 16,8 16,12 	"/>
	<rect x="8" y="-4" width="4" height="4"/>
</g>
</svg>
